<?xml version="1.0" encoding="utf-8"?>
<!-- Generator: Adobe Illustrator 21.1.0, SVG Export Plug-In . SVG Version: 6.00 Build 0)  -->
<svg version="1.1" id="图层_1" xmlns="http://www.w3.org/2000/svg" xmlns:xlink="http://www.w3.org/1999/xlink" x="0px" y="0px"
	 viewBox="0 0 100 100" style="enable-background:new 0 0 100 100;" xml:space="preserve">
<style type="text/css">
	.st0{fill:#8E5821;}
	.st1{fill:#B2855B;}
</style>
<g>
	<path class="st0" d="M72.5,51.9h12.6c0.8,0,1.5-0.7,1.5-1.5s-0.7-1.5-1.5-1.5H73.4C73.2,49.9,72.9,50.9,72.5,51.9z"/>
	<path class="st0" d="M69.6,57.8h15.6c0.8,0,1.5-0.7,1.5-1.5c0-0.8-0.7-1.5-1.5-1.5H71.3C70.8,55.9,70.2,56.9,69.6,57.8z"/>
	<path class="st0" d="M63.9,63.8h21.2c0.8,0,1.5-0.7,1.5-1.5s-0.7-1.5-1.5-1.5H67.2C66.2,61.9,65.1,62.9,63.9,63.8z"/>
	<path class="st1" d="M5.1,14.5c0-0.8,0.7-1.5,1.5-1.5H44c0.8,0,1.5-0.7,1.5-1.5c0-0.8-0.7-1.5-1.5-1.5H6.6c-2.5,0-4.5,2-4.5,4.5
		v49.3l3-2.1V14.5z"/>
	<path class="st1" d="M93.4,10H53.2c-2.6,0-4.7,2.1-4.7,4.7v6.5c-12.4,0-22.4,10-22.4,22.4c0,4.6,1.4,9.1,4,12.8l-2,1.6l-2.7-3.5
		c-1.1-1.4-3.1-1.7-4.5-0.6L3.1,66.8c-0.7,0.5-0.8,1.4-0.3,2.1c0.5,0.6,1.4,0.8,2,0.3l17.9-12.8c0.1-0.1,0.2-0.1,0.3,0l7.5,9.6
		c0,0,0.1,0.1,0,0.2c0,0.1,0,0.1-0.1,0.1L2.7,87.3c-0.7,0.5-0.8,1.4-0.3,2.1c0.5,0.7,1.4,0.8,2.1,0.3l27.7-20.9
		c1.4-1.1,1.7-3.1,0.6-4.5l-3-3.8l2.1-1.6c8.4,9.1,22.6,9.8,31.7,1.4c9.1-8.4,9.8-22.6,1.4-31.7c-3.6-3.9-8.4-6.4-13.6-7.1v-6.7
		c0-0.9,0.7-1.7,1.7-1.7c0,0,0,0,0,0h40c0.9,0,1.7,0.8,1.7,1.7v53.5c0,0.9-0.8,1.7-1.7,1.7H35.4c-0.4,0.5-0.8,1-1.3,1.4l-2.2,1.6
		h11.3V78h-6c-0.8,0-1.5,0.7-1.5,1.5s0.7,1.5,1.5,1.5h25.4c0.8,0,1.5-0.7,1.5-1.5S63.5,78,62.7,78h-6v-5.2h36.6c2.5,0,4.5-2,4.5-4.5
		V14.5C97.8,12,95.8,10,93.4,10z M67.9,43.6c0,10.7-8.7,19.4-19.4,19.4s-19.4-8.7-19.4-19.4s8.7-19.4,19.4-19.4S67.9,32.9,67.9,43.6
		z M46.3,78v-5.2h7.5V78H46.3z"/>
	<path class="st1" d="M47.5,28.7c-5.9,1.2-10.4,5.8-11.7,11.6c-0.2,0.8,0.3,1.6,1.1,1.8c0,0,0,0,0.1,0c0.1,0,0.2,0,0.3,0
		c0.7,0,1.3-0.5,1.5-1.2c1-4.7,4.6-8.3,9.3-9.3c0.8-0.2,1.4-1,1.2-1.8S48.3,28.5,47.5,28.7z"/>
	<circle class="st1" cx="36.5" cy="46.6" r="1.5"/>
	<path class="st0" d="M14.9,19c-0.8,0-1.5,0.7-1.5,1.5v12c0,0.8,0.7,1.5,1.5,1.5c0.8,0,1.5-0.7,1.5-1.5V22h12c0.8,0,1.5-0.7,1.5-1.5
		S29.1,19,28.3,19H14.9z"/>
	<path class="st0" d="M73.8,45.9h11.3c0.8,0,1.5-0.7,1.5-1.5s-0.7-1.5-1.5-1.5H73.9c0,0.2,0,0.5,0,0.7
		C73.9,44.4,73.9,45.1,73.8,45.9z"/>
	<path class="st0" d="M85.1,39.9c0.8,0,1.5-0.7,1.5-1.5c0-0.8-0.7-1.5-1.5-1.5H73c0.3,1,0.5,2,0.6,3H85.1z"/>
	<path class="st0" d="M85.1,33.9c0.8,0,1.5-0.7,1.5-1.5s-0.7-1.5-1.5-1.5H70.5c0.6,1,1.1,2,1.5,3H85.1z"/>
	<path class="st0" d="M85.1,27.9c0.8,0,1.5-0.7,1.5-1.5c0-0.8-0.7-1.5-1.5-1.5H65.7c1,0.9,1.9,1.9,2.8,3H85.1z"/>
	<path class="st0" d="M86.6,20.5c0-0.8-0.7-1.5-1.5-1.5H61.2c-0.8,0-1.5,0.7-1.5,1.5c0,0.1,0,0.3,0.1,0.4c0.7,0.3,1.3,0.7,2,1.1
		h23.4C86,22,86.6,21.3,86.6,20.5z"/>
</g>
</svg>
