<?xml version="1.0" encoding="utf-8"?>
<!-- Generator: Adobe Illustrator 21.1.0, SVG Export Plug-In . SVG Version: 6.00 Build 0)  -->
<svg version="1.1" id="图层_1" xmlns="http://www.w3.org/2000/svg" xmlns:xlink="http://www.w3.org/1999/xlink" x="0px" y="0px"
	 viewBox="0 0 100 100" style="enable-background:new 0 0 100 100;" xml:space="preserve">
<style type="text/css">
	.st0{fill:#8E5821;}
	.st1{fill:#B2855B;}
</style>
<g>
	<g>
		<g>
			<path class="st0" d="M58.9,80.4H28.5c-0.7,0-1.3-0.6-1.3-1.3V74c0-0.7,0.6-1.3,1.3-1.3h10.7v-5.2c0-0.7,0.6-1.3,1.3-1.3h34.2
				c0.7,0,1.3,0.6,1.3,1.3v7.7h15.1V54.8H76v5.8c0,0.7-0.6,1.3-1.3,1.3s-1.3-0.6-1.3-1.3v-7c0-0.7,0.6-1.3,1.3-1.3h17.6
				c0.7,0,1.3,0.6,1.3,1.3v23c0,0.7-0.6,1.3-1.3,1.3H74.7c-0.7,0-1.3-0.6-1.3-1.3v-7.7H41.7V74c0,0.7-0.6,1.3-1.3,1.3H29.8v2.6h27.9
				v-2.6h-9.9c-0.7,0-1.3-0.6-1.3-1.3c0-0.7,0.6-1.3,1.3-1.3h11.1c0.7,0,1.3,0.6,1.3,1.3v5.1C60.2,79.8,59.6,80.4,58.9,80.4z"/>
		</g>
	</g>
	<g>
		<path class="st1" d="M33.9,68.8H2.5c-0.7,0-1.3-0.6-1.3-1.3V13.3c0-0.7,0.6-1.3,1.3-1.3h83.3c0.7,0,1.3,0.6,1.3,1.3v27.2
			c0,0.7-0.6,1.3-1.3,1.3s-1.3-0.6-1.3-1.3V14.5H3.7v51.8h30.1c0.7,0,1.3,0.6,1.3,1.3C35.1,68.3,34.6,68.8,33.9,68.8z"/>
	</g>
	<g>
		<path class="st1" d="M97.5,88h-28c-0.7,0-1.3-0.6-1.3-1.3V72.8c0-0.7,0.6-1.3,1.3-1.3c0.7,0,1.3,0.6,1.3,1.3v12.7h25.5V49.6H85.8
			c-0.7,0-1.3-0.6-1.3-1.3c0-0.7,0.6-1.3,1.3-1.3h11.8c0.7,0,1.3,0.6,1.3,1.3v38.4C98.8,87.4,98.2,88,97.5,88z"/>
	</g>
	<g>
		<path class="st1" d="M86.5,82.8h-5.9c-0.7,0-1.3-0.6-1.3-1.3c0-0.7,0.6-1.3,1.3-1.3h5.9c0.7,0,1.3,0.6,1.3,1.3
			C87.7,82.3,87.1,82.8,86.5,82.8z"/>
	</g>
	<g>
		<path class="st1" d="M69.5,58.3H10.4c-0.7,0-1.3-0.6-1.3-1.3c0-0.7,0.6-1.3,1.3-1.3h57.9v-7.5c0-0.7,0.6-1.3,1.3-1.3h16.2
			c0.7,0,1.3,0.6,1.3,1.3c0,0.7-0.6,1.3-1.3,1.3h-15v7.5C70.8,57.8,70.2,58.3,69.5,58.3z"/>
	</g>
</g>
</svg>
