<?xml version="1.0" encoding="utf-8"?>
<!-- Generator: Adobe Illustrator 21.1.0, SVG Export Plug-In . SVG Version: 6.00 Build 0)  -->
<svg version="1.1" id="图层_1" xmlns="http://www.w3.org/2000/svg" xmlns:xlink="http://www.w3.org/1999/xlink" x="0px" y="0px"
	 viewBox="0 0 100 100" style="enable-background:new 0 0 100 100;" xml:space="preserve">
<style type="text/css">
	.st3{fill:none;}
	.st1{fill:#B2855B;}
	.st2{fill:#8E5821;}
</style>
<g>
	<path class="st3" d="M46.3,79.4l0.3-0.2c0.7-0.4,1.4-0.7,2-0.8l0.2,0V71l-5.4,2.6L46.3,79.4z"/>
	<polygon class="st3" points="32.5,51.1 37.4,61.1 47.3,51.1 	"/>
	<polygon class="st3" points="42.6,71.7 48.9,68.6 48.9,52.7 38.4,63.2 	"/>
	<path class="st3" d="M46.3,20.6l-0.2-0.1L34.1,32.5l14.8,14.8V21.6l-0.2,0C47.8,21.4,47,21.1,46.3,20.6z"/>
	<path class="st3" d="M20.6,46.3c0,0,0.1,0.1,0.1,0.1c0.1,0.1,0.2,0.3,0.2,0.4c0,0.1,0.1,0.2,0.1,0.3c0,0.1,0.1,0.2,0.1,0.3
		c0.2,0.4,0.3,0.8,0.4,1.2l0,0.2H29l-3.7-7.6l-4.8,4.8L20.6,46.3C20.6,46.3,20.6,46.3,20.6,46.3L20.6,46.3z"/>
	<path class="st3" d="M65.9,32.5L53.9,20.4l-0.2,0.1c-0.1,0.1-0.2,0.1-0.4,0.2L52.9,21l8.4,16.1L65.9,32.5z"/>
	<polygon class="st3" points="32.5,34.1 26.9,39.6 31.4,48.9 47.3,48.9 	"/>
	<path class="st3" d="M18.9,20.4l-0.2,0.1c-0.1,0.1-0.3,0.2-0.4,0.2L17.8,21l8.1,16.5l5-5L18.9,20.4z"/>
	<path class="st3" d="M21,82.2l19.5-9.5l-3.8-7.8L20.4,81.1l0.1,0.2c0.1,0.1,0.1,0.3,0.2,0.4C20.9,81.9,21,82,21,82.2L21,82.2z"/>
	<path class="st3" d="M71.9,57.3l7.5-3.7l-0.2-0.3c-0.4-0.7-0.7-1.4-0.8-2l0-0.2h-9.8L71.9,57.3z"/>
	<path class="st3" d="M62.4,39.2l5.1,9.7h10.9l0-0.2c0.2-0.8,0.5-1.6,1-2.3l0.1-0.2L67.5,34.1L62.4,39.2z"/>
	<polygon class="st3" points="65,48.9 60.7,40.8 52.7,48.9 	"/>
	<polygon class="st3" points="51.7,23.5 51.1,23.6 51.1,47.3 59.7,38.8 	"/>
	<polygon class="st3" points="51.1,67.5 61.1,62.6 51.1,52.7 	"/>
	<polygon class="st3" points="64.8,63.2 79.6,78 80,77.7 70.9,60.2 	"/>
	<polygon class="st3" points="66.1,51.1 52.7,51.1 63.1,61.6 69.9,58.3 	"/>
	<path class="st1" d="M20.6,46.3c0,0.1,0.1,0.1,0.1,0.2C20.6,46.4,20.6,46.4,20.6,46.3L20.6,46.3z"/>
	<path class="st1" d="M21.2,17.6c-0.1,0.2-0.2,0.3-0.2,0.5C21,17.9,21.1,17.8,21.2,17.6z"/>
	<path class="st1" d="M49.3,91.7c-0.1,0-0.2,0-0.3,0C49.1,91.6,49.2,91.7,49.3,91.7z"/>
	<path class="st1" d="M21.6,15.8c0,0.1,0,0.3-0.1,0.4C21.6,16.1,21.6,15.9,21.6,15.8z"/>
	<path class="st1" d="M8.4,50c0-3.7,3-6.7,6.7-6.7c1.1,0,2.2,0.3,3.1,0.8c-1-0.5-2-0.8-3.1-0.8C11.3,43.3,8.3,46.3,8.4,50
		c-0.1,3.7,2.9,6.7,6.6,6.7c0.9,0,1.8-0.2,2.6-0.5c-0.8,0.3-1.6,0.5-2.5,0.5C11.3,56.7,8.4,53.7,8.4,50z"/>
	<path class="st1" d="M91.6,51.3c0,0.2-0.1,0.4-0.2,0.6C91.5,51.7,91.5,51.5,91.6,51.3z"/>
	<path class="st1" d="M51.9,91.4c-0.2,0.1-0.4,0.1-0.6,0.2C51.5,91.5,51.7,91.5,51.9,91.4z"/>
	<path class="st1" d="M49,8.4c0.1,0,0.2,0,0.3,0C49.2,8.3,49.1,8.4,49,8.4z"/>
	<path class="st1" d="M21,47.1c0-0.1-0.1-0.2-0.1-0.3C21,46.9,21,47,21,47.1z"/>
	<path class="st1" d="M50.7,8.3c0.1,0,0.2,0,0.3,0C50.9,8.4,50.8,8.3,50.7,8.3z"/>
	<path class="st1" d="M21.7,15.2c0-0.1,0-0.1,0-0.2c0-0.2,0-0.5,0-0.7c0,0.2,0,0.4,0,0.7C21.7,15,21.7,15.1,21.7,15.2z"/>
	<path class="st1" d="M21.5,16.6c-0.1,0.3-0.2,0.5-0.3,0.8C21.3,17.1,21.4,16.9,21.5,16.6z"/>
	<path class="st1" d="M48.1,8.6c0.2-0.1,0.4-0.1,0.6-0.2C48.5,8.5,48.3,8.5,48.1,8.6z"/>
	<path class="st1" d="M51.3,8.4c0.2,0,0.4,0.1,0.6,0.2C51.7,8.5,51.5,8.5,51.3,8.4z"/>
	<path class="st1" d="M51,91.6c-0.1,0-0.2,0-0.3,0C50.8,91.7,50.9,91.6,51,91.6z"/>
	<path class="st1" d="M48.7,91.6c-0.2,0-0.4-0.1-0.6-0.2C48.3,91.5,48.5,91.5,48.7,91.6z"/>
	<path class="st1" d="M20.8,53.4c0,0.1-0.1,0.1-0.1,0.2C20.7,53.5,20.7,53.4,20.8,53.4z"/>
	<path class="st1" d="M21.3,52.3c0,0.1,0,0.1-0.1,0.2C21.2,52.5,21.2,52.4,21.3,52.3z"/>
	<path class="st1" d="M18.5,55.7c-0.2,0.1-0.4,0.2-0.6,0.3C18.1,55.9,18.3,55.8,18.5,55.7z"/>
	<path class="st1" d="M20.1,54.3c-0.1,0.1-0.1,0.1-0.2,0.2C20,54.5,20,54.4,20.1,54.3z"/>
	<path class="st1" d="M91.7,50.7c0,0.1,0,0.2,0,0.3C91.6,50.9,91.7,50.8,91.7,50.7z"/>
	<path class="st1" d="M91.4,48.1c0.1,0.2,0.1,0.4,0.2,0.6C91.5,48.5,91.5,48.3,91.4,48.1z"/>
	<path class="st1" d="M91.6,49c0,0.1,0,0.2,0,0.3C91.7,49.2,91.6,49.1,91.6,49z"/>
	<path class="st1" d="M21.7,85.7c0-0.2,0-0.5,0-0.7c0,0,0-0.1,0-0.1c0,0,0,0.1,0,0.1C21.7,85.3,21.7,85.5,21.7,85.7z"/>
	<path class="st1" d="M81.3,20.6c1.1,0.7,2.4,1.1,3.7,1.1c3.7,0,6.7-3,6.7-6.7c0,0,0,0,0,0c0,3.7-3,6.6-6.7,6.6
		c-3.7,0-6.7-3-6.7-6.7c0-3.7,3-6.7,6.6-6.7c0,0,0,0,0,0c-3.7,0-6.7,3-6.7,6.7c0,1.3,0.4,2.6,1.1,3.7l0.1,0.2L67.5,30.9L55.4,18.9
		l0.1-0.2c0.7-1.1,1.1-2.4,1.1-3.7c0-3-2-5.6-4.7-6.4c2.7,0.8,4.7,3.4,4.7,6.4c0,3.7-3,6.7-6.7,6.7s-6.7-3-6.7-6.7
		c0-3,2-5.5,4.7-6.4c-2.7,0.8-4.7,3.4-4.7,6.4c0,1.3,0.4,2.6,1.1,3.7l0.1,0.2L32.5,30.9L20.4,18.9l0.1-0.2c0.1-0.2,0.2-0.3,0.3-0.5
		c-1.1,2-3.3,3.4-5.8,3.4c-3.7,0-6.7-3-6.7-6.7c0-3.7,3-6.7,6.7-6.7c0,0,0,0,0,0c-3.7,0-6.7,3-6.7,6.7s3,6.7,6.7,6.7
		c0.1,0,0.2,0,0.3,0c0.1,0,0.1,0,0.2,0l0.2,0l8.6,17.6l-5.4,5.4l-0.2-0.1c-0.1-0.1-0.2-0.1-0.3-0.2c0.9,0.5,1.6,1.2,2.2,2l-0.1-0.2
		l4.8-4.8l3.7,7.6h-7.4l0-0.2c-0.1-0.4-0.2-0.8-0.4-1.2c0.3,0.8,0.5,1.7,0.5,2.6c0,0.5-0.1,0.9-0.1,1.4c0,0,0,0,0,0l0-0.2h8.5
		l5.7,11.6L18.9,79.6l-0.2-0.1c-1.1-0.7-2.4-1.1-3.7-1.1c-3.7,0-6.7,3-6.7,6.7s3,6.7,6.7,6.7c0,0,0,0,0,0c-3.7,0-6.7-3-6.7-6.7
		c0-3.7,3-6.7,6.7-6.7c2.5,0,4.6,1.3,5.8,3.3c-0.1-0.1-0.1-0.3-0.2-0.4l-0.1-0.2l16.3-16.3l3.8,7.8L21,82.2l0,0
		c0.3,0.7,0.5,1.4,0.6,2.1l19.9-9.7l3.1,6.4l-0.1,0.1c-0.8,1.2-1.3,2.5-1.3,3.9c0,3,2,5.6,4.7,6.4c-2.7-0.8-4.7-3.4-4.7-6.4
		c0-3.7,3-6.7,6.7-6.7s6.7,3,6.7,6.7c0,3-2,5.5-4.7,6.4c2.7-0.8,4.7-3.4,4.7-6.4c0-3.2-2.3-5.9-5.4-6.6l-0.2,0v-8.5l11.6-5.7
		l16.8,16.8l-0.1,0.2c-0.7,1.1-1.1,2.4-1.1,3.7c0,3.7,3,6.7,6.7,6.7c0,0,0,0,0,0c-3.7,0-6.6-3-6.6-6.7c0-3.7,3-6.7,6.7-6.7
		c3.7,0,6.7,3,6.7,6.6c0,0,0,0,0,0c0-3.7-3-6.7-6.7-6.7c-0.5,0-1.1,0.1-1.7,0.3L83,78.6L72.9,59.3l8.1-3.9l0.1,0.1
		c1.1,0.8,2.5,1.3,3.9,1.3c3,0,5.6-2,6.4-4.7c-0.8,2.7-3.4,4.7-6.4,4.7c-3.7,0-6.7-3-6.7-6.7s3-6.7,6.7-6.7c3,0,5.5,2,6.4,4.7
		c-0.8-2.7-3.4-4.7-6.4-4.7c-1.3,0-2.6,0.4-3.7,1.1l-0.2,0.1L69.1,32.5l12.1-12.1L81.3,20.6z M17.8,21l0.4-0.2
		c0.1-0.1,0.3-0.1,0.4-0.2l0.2-0.1l12.1,12.1l-5,5L17.8,21z M26.9,39.6l5.6-5.6l14.8,14.8H31.4L26.9,39.6z M32.5,51.1h14.8l-10,10
		L32.5,51.1z M48.9,78.4l-0.2,0c-0.7,0.1-1.3,0.4-2,0.8l-0.3,0.2l-2.8-5.8l5.4-2.6V78.4z M48.9,68.6l-6.3,3.1l-4.2-8.5l10.5-10.5
		V68.6z M48.9,47.3L34.1,32.5l12.1-12.1l0.2,0.1c0.7,0.5,1.5,0.8,2.3,1l0.2,0V47.3z M53.3,20.8c0.1-0.1,0.3-0.1,0.4-0.2l0.2-0.1
		l12.1,12.1l-4.6,4.6L52.9,21L53.3,20.8z M65,48.9H52.7l8.1-8.1L65,48.9z M51.1,23.6l0.6-0.1l8,15.3l-8.6,8.6V23.6z M51.1,67.5V52.7
		l10,10L51.1,67.5z M52.7,51.1h13.5l3.8,7.2l-6.8,3.3L52.7,51.1z M80,77.7L79.6,78L64.8,63.2l6.1-3L80,77.7z M78.4,51.1l0,0.2
		c0.1,0.7,0.4,1.3,0.8,2l0.2,0.3l-7.5,3.7l-3.3-6.2H78.4z M79.6,46.1l-0.1,0.2c-0.5,0.7-0.8,1.5-1,2.3l0,0.2H67.5l-5.1-9.7l5.1-5.1
		L79.6,46.1z"/>
	<path class="st1" d="M19.3,55.1c-0.1,0.1-0.2,0.2-0.3,0.2C19.1,55.2,19.2,55.2,19.3,55.1z"/>
	<path class="st3" d="M21.2,17.4c0,0.1-0.1,0.1-0.1,0.2C21.2,17.5,21.2,17.4,21.2,17.4z"/>
	<path class="st3" d="M20.9,18.1C20.9,18.1,20.9,18.2,20.9,18.1C20.9,18.2,20.9,18.1,20.9,18.1z"/>
	<path class="st3" d="M21.7,14.3c-0.3-3.4-3.2-6-6.6-6c0,0,0,0,0,0C18.5,8.3,21.3,10.9,21.7,14.3z"/>
	<path class="st3" d="M21.6,16.2c0,0.1-0.1,0.3-0.1,0.4C21.5,16.4,21.6,16.3,21.6,16.2z"/>
	<path class="st3" d="M21.7,15.2c0,0.2,0,0.4,0,0.6C21.7,15.6,21.7,15.4,21.7,15.2z"/>
	<circle class="st3" cx="15" cy="15" r="4.5"/>
	<path class="st2" d="M8.4,15c0,3.7,3,6.7,6.7,6.7c2.5,0,4.7-1.4,5.8-3.4c0,0,0-0.1,0-0.1c0.1-0.2,0.2-0.3,0.2-0.5
		c0-0.1,0.1-0.1,0.1-0.2c0.1-0.3,0.2-0.5,0.3-0.8c0-0.1,0.1-0.3,0.1-0.4c0-0.1,0-0.3,0.1-0.4c0-0.2,0-0.4,0-0.6c0-0.1,0-0.1,0-0.2
		c0-0.2,0-0.4,0-0.7c-0.3-3.4-3.2-6-6.6-6C11.3,8.3,8.4,11.3,8.4,15z M15,10.5c2.5,0,4.5,2,4.5,4.5s-2,4.5-4.5,4.5s-4.5-2-4.5-4.5
		S12.5,10.5,15,10.5z"/>
	<path class="st3" d="M48.7,8.4c0.1,0,0.2,0,0.4-0.1C48.9,8.4,48.8,8.4,48.7,8.4z"/>
	<path class="st3" d="M51.9,8.6C51.9,8.6,52,8.6,51.9,8.6C52,8.6,51.9,8.6,51.9,8.6z"/>
	<path class="st3" d="M49.3,8.3c0.2,0,0.5,0,0.7,0C49.8,8.3,49.5,8.3,49.3,8.3z"/>
	<path class="st3" d="M48,8.6C48,8.6,48.1,8.6,48,8.6C48.1,8.6,48,8.6,48,8.6z"/>
	<circle class="st3" cx="50" cy="15" r="4.5"/>
	<path class="st3" d="M51,8.4c0.1,0,0.2,0,0.4,0.1C51.2,8.4,51.1,8.4,51,8.4z"/>
	<path class="st3" d="M50,8.3c0.2,0,0.5,0,0.7,0C50.5,8.3,50.2,8.3,50,8.3z"/>
	<path class="st2" d="M43.3,15c0,3.7,3,6.7,6.7,6.7s6.7-3,6.7-6.7c0-3-2-5.5-4.7-6.4c0,0,0,0,0,0c-0.2-0.1-0.4-0.1-0.6-0.2
		c-0.1,0-0.2,0-0.4-0.1c-0.1,0-0.2,0-0.3,0c-0.2,0-0.5,0-0.7,0s-0.5,0-0.7,0c-0.1,0-0.2,0-0.3,0c-0.1,0-0.2,0-0.4,0.1
		c-0.2,0-0.4,0.1-0.6,0.2c0,0,0,0,0,0C45.3,9.4,43.3,12,43.3,15z M50,10.5c2.5,0,4.5,2,4.5,4.5s-2,4.5-4.5,4.5s-4.5-2-4.5-4.5
		S47.5,10.5,50,10.5z"/>
	<path class="st3" d="M91.7,15C91.7,15,91.7,15,91.7,15c0-3.7-3-6.7-6.7-6.7c0,0,0,0,0,0C88.7,8.3,91.7,11.3,91.7,15z"/>
	<circle class="st3" cx="85" cy="15" r="4.5"/>
	<path class="st2" d="M78.4,15c0,3.7,3,6.7,6.7,6.7c3.7,0,6.7-3,6.7-6.6c0-3.7-3-6.7-6.7-6.7C81.3,8.3,78.4,11.3,78.4,15z M85,10.5
		c2.5,0,4.5,2,4.5,4.5s-2,4.5-4.5,4.5s-4.5-2-4.5-4.5S82.5,10.5,85,10.5z"/>
	<path class="st3" d="M91.6,48.7c0,0.1,0,0.2,0.1,0.4C91.6,48.9,91.6,48.8,91.6,48.7z"/>
	<path class="st3" d="M91.4,48C91.4,48,91.4,48.1,91.4,48C91.4,48.1,91.4,48,91.4,48z"/>
	<circle class="st3" cx="85" cy="50" r="4.5"/>
	<path class="st3" d="M91.7,49.3c0,0.2,0,0.5,0,0.7C91.7,49.8,91.7,49.5,91.7,49.3z"/>
	<path class="st3" d="M91.6,51c0,0.1,0,0.2-0.1,0.4C91.6,51.2,91.6,51.1,91.6,51z"/>
	<path class="st3" d="M91.4,51.9C91.4,51.9,91.4,52,91.4,51.9C91.4,52,91.4,51.9,91.4,51.9z"/>
	<path class="st3" d="M91.7,50c0,0.2,0,0.5,0,0.7C91.7,50.5,91.7,50.2,91.7,50z"/>
	<path class="st2" d="M85,43.3c-3.7,0-6.7,3-6.7,6.7s3,6.7,6.7,6.7c3,0,5.5-2,6.4-4.7c0,0,0,0,0,0c0.1-0.2,0.1-0.4,0.2-0.6
		c0-0.1,0-0.2,0.1-0.4c0-0.1,0-0.2,0-0.3c0-0.2,0-0.5,0-0.7s0-0.5,0-0.7c0-0.1,0-0.2,0-0.3c0-0.1,0-0.2-0.1-0.4
		c0-0.2-0.1-0.4-0.2-0.6c0,0,0,0,0,0C90.6,45.3,88,43.3,85,43.3z M85,54.5c-2.5,0-4.5-2-4.5-4.5s2-4.5,4.5-4.5s4.5,2,4.5,4.5
		S87.5,54.5,85,54.5z"/>
	<path class="st3" d="M85,91.7C85,91.7,85,91.7,85,91.7c3.7,0,6.7-3,6.7-6.7c0,0,0,0,0,0C91.7,88.7,88.7,91.7,85,91.7z"/>
	<circle class="st3" cx="85" cy="85" r="4.5"/>
	<path class="st2" d="M85,78.4c-3.7,0-6.7,3-6.7,6.7c0,3.7,3,6.7,6.6,6.7c3.7,0,6.7-3,6.7-6.7C91.7,81.3,88.7,78.4,85,78.4z
		 M85,89.5c-2.5,0-4.5-2-4.5-4.5s2-4.5,4.5-4.5s4.5,2,4.5,4.5S87.5,89.5,85,89.5z"/>
	<path class="st3" d="M49,91.6c-0.1,0-0.2,0-0.4-0.1C48.8,91.6,48.9,91.6,49,91.6z"/>
	<path class="st3" d="M50.7,91.7c-0.2,0-0.5,0-0.7,0C50.2,91.7,50.5,91.7,50.7,91.7z"/>
	<path class="st3" d="M50,91.7c-0.2,0-0.5,0-0.7,0C49.5,91.7,49.8,91.7,50,91.7z"/>
	<path class="st3" d="M48.1,91.4C48.1,91.4,48,91.4,48.1,91.4C48,91.4,48.1,91.4,48.1,91.4z"/>
	<path class="st3" d="M52,91.4C52,91.4,51.9,91.4,52,91.4C51.9,91.4,52,91.4,52,91.4z"/>
	<path class="st3" d="M51.3,91.6c-0.1,0-0.2,0-0.4,0.1C51.1,91.6,51.2,91.6,51.3,91.6z"/>
	<circle class="st3" cx="50" cy="85" r="4.5"/>
	<path class="st2" d="M56.7,85c0-3.7-3-6.7-6.7-6.7s-6.7,3-6.7,6.7c0,3,2,5.5,4.7,6.4c0,0,0,0,0,0c0.2,0.1,0.4,0.1,0.6,0.2
		c0.1,0,0.2,0,0.4,0.1c0.1,0,0.2,0,0.3,0c0.2,0,0.5,0,0.7,0s0.5,0,0.7,0c0.1,0,0.2,0,0.3,0c0.1,0,0.2,0,0.4-0.1
		c0.2,0,0.4-0.1,0.6-0.2c0,0,0,0,0,0C54.7,90.6,56.7,88,56.7,85z M50,89.5c-2.5,0-4.5-2-4.5-4.5s2-4.5,4.5-4.5s4.5,2,4.5,4.5
		S52.5,89.5,50,89.5z"/>
	<path class="st3" d="M15,91.7C15,91.7,15,91.7,15,91.7c3.5,0,6.3-2.6,6.6-6C21.3,89.1,18.5,91.7,15,91.7z"/>
	<path class="st3" d="M21.7,84.5c0,0.1,0,0.1,0,0.2c0,0.1,0,0.1,0,0.2c0-0.2,0-0.4,0-0.6l0,0L21.7,84.5z"/>
	<path class="st3" d="M21,82.2c-0.1-0.2-0.2-0.3-0.2-0.5c0,0,0,0,0,0L21,82.2z"/>
	<circle class="st3" cx="15" cy="85" r="4.5"/>
	<path class="st2" d="M20.8,81.7C20.8,81.7,20.8,81.7,20.8,81.7c-1.2-2-3.3-3.4-5.8-3.4c-3.7,0-6.7,3-6.7,6.7c0,3.7,3,6.7,6.7,6.7
		c3.5,0,6.3-2.6,6.6-6c0-0.2,0-0.4,0-0.7c0,0,0-0.1,0-0.1c0-0.1,0-0.1,0-0.2c0-0.1,0-0.1,0-0.2l0-0.2l0,0c-0.1-0.8-0.3-1.5-0.6-2.1
		L20.8,81.7z M15,89.5c-2.5,0-4.5-2-4.5-4.5s2-4.5,4.5-4.5s4.5,2,4.5,4.5S17.5,89.5,15,89.5z"/>
	<path class="st3" d="M19,55.3c-0.2,0.1-0.3,0.2-0.5,0.3C18.7,55.6,18.9,55.4,19,55.3z"/>
	<path class="st3" d="M19.9,54.5c-0.2,0.2-0.4,0.4-0.6,0.6C19.5,54.9,19.7,54.7,19.9,54.5z"/>
	<path class="st3" d="M21.2,52.5c-0.1,0.3-0.3,0.6-0.4,0.8C20.9,53.1,21.1,52.8,21.2,52.5z"/>
	<path class="st3" d="M21.6,51.4c-0.1,0.3-0.2,0.6-0.3,1C21.4,52,21.5,51.7,21.6,51.4z"/>
	<path class="st3" d="M20.6,53.6c-0.2,0.3-0.3,0.5-0.5,0.7C20.3,54.1,20.5,53.8,20.6,53.6z"/>
	<path class="st3" d="M17.9,56c-0.1,0.1-0.3,0.1-0.4,0.2C17.7,56.1,17.8,56.1,17.9,56z"/>
	<path class="st3" d="M20.9,46.9c-0.1-0.1-0.2-0.3-0.2-0.4C20.8,46.6,20.8,46.7,20.9,46.9z"/>
	<path class="st3" d="M18.1,44.1c0.1,0,0.2,0.1,0.3,0.2C18.3,44.2,18.2,44.1,18.1,44.1z"/>
	<path class="st3" d="M20.6,46.3L20.6,46.3C20.6,46.3,20.6,46.3,20.6,46.3z"/>
	<path class="st3" d="M21.2,47.4c0-0.1-0.1-0.2-0.1-0.3C21.1,47.2,21.1,47.3,21.2,47.4z"/>
	<circle class="st3" cx="15" cy="50" r="4.5"/>
	<path class="st2" d="M21.2,47.4c0-0.1-0.1-0.2-0.1-0.3c0-0.1-0.1-0.2-0.1-0.3c-0.1-0.1-0.2-0.3-0.2-0.4c0-0.1-0.1-0.1-0.1-0.2l0,0
		c-0.6-0.8-1.3-1.5-2.2-2c-0.1-0.1-0.2-0.1-0.3-0.2c-0.9-0.5-2-0.8-3.1-0.8c-3.7,0-6.7,3-6.7,6.7s3,6.7,6.7,6.7
		c0.9,0,1.8-0.2,2.5-0.5c0.1-0.1,0.3-0.1,0.4-0.2c0.2-0.1,0.4-0.2,0.6-0.3c0.2-0.1,0.3-0.2,0.5-0.3c0.1-0.1,0.2-0.2,0.3-0.2
		c0.2-0.2,0.4-0.4,0.6-0.6c0.1-0.1,0.1-0.1,0.2-0.2c0.2-0.2,0.4-0.5,0.5-0.7c0-0.1,0.1-0.1,0.1-0.2c0.2-0.3,0.3-0.5,0.4-0.8
		c0-0.1,0-0.1,0.1-0.2c0.1-0.3,0.2-0.6,0.3-1c0.1-0.4,0.1-0.9,0.1-1.4C21.7,49.1,21.5,48.2,21.2,47.4z M15,54.5
		c-2.5,0-4.5-2-4.5-4.5s2-4.5,4.5-4.5s4.5,2,4.5,4.5S17.5,54.5,15,54.5z"/>
</g>
</svg>
