<?xml version="1.0" encoding="utf-8"?>
<!-- Generator: Adobe Illustrator 21.1.0, SVG Export Plug-In . SVG Version: 6.00 Build 0)  -->
<svg version="1.1" id="图层_1" xmlns="http://www.w3.org/2000/svg" xmlns:xlink="http://www.w3.org/1999/xlink" x="0px" y="0px"
	 viewBox="0 0 100 100" style="enable-background:new 0 0 100 100;" xml:space="preserve">
<style type="text/css">
	.st0{fill:#B2855B;}
	.st1{fill:#8E5821;}
</style>
<g>
	<path class="st0" d="M44.5,91.7l-0.6-0.1c-0.8-0.1-1.5,0.3-1.7,1.1c-0.1,0.8,0.3,1.5,1.1,1.7l0,0l0.7,0.1h0.2
		c0.8,0.1,1.5-0.5,1.5-1.3S45.2,91.7,44.5,91.7L44.5,91.7z"/>
	<path class="st0" d="M38.8,90.2L38.2,90c-0.7-0.3-1.5,0-1.9,0.7c-0.3,0.7,0,1.5,0.7,1.9h0.1l0.7,0.3C38,93,38.1,93,38.3,93
		c0.8,0,1.4-0.6,1.4-1.4C39.7,90.9,39.3,90.4,38.8,90.2L38.8,90.2z"/>
	<path class="st0" d="M50.4,92.2h-0.7c-0.8,0-1.4,0.6-1.4,1.4s0.6,1.4,1.4,1.4h0.7c0.8,0,1.4-0.6,1.4-1.4S51.1,92.2,50.4,92.2z"/>
	<path class="st0" d="M20.1,68.9c0-0.2-0.1-0.4-0.1-0.6c-0.1-0.8-0.9-1.3-1.6-1.1c-0.8,0.1-1.3,0.9-1.1,1.6c0,0.2,0.1,0.5,0.1,0.7
		c0.2,0.8,0.9,1.2,1.7,1.1C19.8,70.4,20.2,69.7,20.1,68.9L20.1,68.9z"/>
	<path class="st0" d="M33.4,87.6l-0.6-0.4c-0.7-0.4-1.5-0.2-1.9,0.4s-0.2,1.5,0.4,1.9L32,90c0.7,0.4,1.5,0.2,1.9-0.4
		C34.3,89,34.1,88,33.4,87.6C33.5,87.6,33.4,87.6,33.4,87.6L33.4,87.6z"/>
	<path class="st0" d="M24.5,79.1c-0.4-0.6-1.3-0.8-2-0.4c-0.6,0.4-0.8,1.3-0.4,2l0,0l0.4,0.6c0.5,0.6,1.3,0.7,2,0.3
		c0.6-0.5,0.7-1.3,0.3-1.9L24.5,79.1z"/>
	<path class="st0" d="M21.9,74.5l-0.2-0.6c-0.4-0.7-1.2-0.9-1.9-0.5c-0.6,0.3-0.8,1-0.7,1.6c0.1,0.2,0.2,0.4,0.3,0.7
		c0.2,0.8,1,1.2,1.7,1c0.8-0.2,1.2-1,1-1.7C22,74.8,22,74.6,21.9,74.5z"/>
	<path class="st0" d="M28.3,83.6c-0.6-0.5-1.5-0.5-2,0s-0.5,1.5,0,2l0,0l0.5,0.5c0.6,0.5,1.4,0.5,2,0c0.5-0.6,0.5-1.4,0-2
		c0,0,0,0-0.1-0.1L28.3,83.6z"/>
	<path class="st0" d="M56.2,91.6l-0.6,0.1c-0.8,0.1-1.4,0.7-1.3,1.5s0.7,1.4,1.5,1.3H56l0.7-0.1c0.8-0.1,1.3-0.9,1.1-1.7
		S57,91.5,56.2,91.6L56.2,91.6z"/>
	<path class="st0" d="M61.9,89.9l-0.6,0.2c-0.7,0.2-1.1,1-0.9,1.8c0.2,0.7,1,1.1,1.8,0.9h0.1l0.7-0.3c0.7-0.3,1.1-1.1,0.8-1.8
		C63.5,90,62.7,89.6,61.9,89.9C62,89.9,61.9,89.9,61.9,89.9z"/>
	<path class="st0" d="M71.8,83.5L71.3,84c-0.5,0.6-0.4,1.5,0.2,2c0.5,0.4,1.2,0.5,1.7,0.1l0.5-0.5c0.5-0.6,0.4-1.5-0.2-2
		C73,83.2,72.3,83.2,71.8,83.5z"/>
	<path class="st0" d="M81.7,67.1c-0.8-0.1-1.5,0.4-1.6,1.1l0,0c0,0.2-0.1,0.4-0.1,0.6c-0.1,0.8,0.3,1.5,1.1,1.6
		c0.7,0.1,1.5-0.3,1.6-1.1c0-0.2,0.1-0.5,0.1-0.7C83,68,82.5,67.2,81.7,67.1z"/>
	<path class="st0" d="M67.2,87.2l-0.6,0.4c-0.6,0.4-0.8,1.3-0.4,2c0.4,0.6,1.2,0.8,1.8,0.4l0.6-0.4c0.6-0.4,0.8-1.3,0.4-1.9
		C68.7,87,67.8,86.8,67.2,87.2z"/>
	<path class="st0" d="M77.5,78.7c-0.6-0.4-1.5-0.3-2,0.4l-0.4,0.5c-0.4,0.6-0.3,1.5,0.4,2c0.6,0.4,1.5,0.3,1.9-0.3l0.4-0.6
		C78.3,80,78.2,79.1,77.5,78.7z"/>
	<path class="st0" d="M80.2,73.1c-0.7-0.3-1.5,0-1.8,0.8l-0.3,0.6c-0.3,0.7,0,1.5,0.7,1.9c0.7,0.3,1.5,0,1.9-0.7
		c0.1-0.2,0.2-0.4,0.3-0.7C81.3,74.2,81,73.4,80.2,73.1L80.2,73.1z"/>
	<path class="st0" d="M22.7,59.1c0.8,0,1.4-0.6,1.4-1.4v-3c2.2-0.9,3.2-3.3,2.4-5.5C25.6,47,23.2,46,21,46.8
		c-2.2,0.9-3.2,3.3-2.4,5.5c0.5,1.2,1.4,2.1,2.7,2.5v3C21.3,58.5,21.9,59.1,22.7,59.1z M22.6,49.3c0.8,0,1.4,0.6,1.4,1.4
		s-0.6,1.4-1.4,1.4s-1.4-0.6-1.4-1.4S21.8,49.3,22.6,49.3z"/>
	<path class="st0" d="M77.3,59.1c0.8,0,1.4-0.6,1.4-1.4v-3c2.2-0.7,3.5-3.1,2.8-5.3s-3.1-3.5-5.3-2.8c-2.2,0.7-3.5,3.1-2.8,5.3
		c0.4,1.2,1.3,2.2,2.5,2.7v3C75.9,58.4,76.5,59.1,77.3,59.1L77.3,59.1z M77.4,49.3c0.8,0,1.4,0.6,1.4,1.4s-0.6,1.4-1.4,1.4
		S76,51.5,76,50.7S76.6,49.3,77.4,49.3z"/>
	<path class="st0" d="M75.9,17.7h3c4.6,0,8.4,3.5,8.4,7.8V29c0,0.8,0.6,1.4,1.4,1.4s1.4-0.6,1.4-1.4v-3.5c0-5.9-5-10.6-11.2-10.6h-3
		c-3.2,0-6.2,1.3-8.4,3.6v7C67.6,21.2,71.3,17.7,75.9,17.7z"/>
	<path class="st0" d="M92,35.2H73.9V38H92c0.1,0,0.2,0.1,0.2,0.1V61c0,0.5-0.4,0.9-0.9,0.9l0,0H73.8c-0.2,1-0.6,2-1.3,2.8h18.8
		c2,0,3.7-1.6,3.7-3.7V38.2C95,36.6,93.7,35.2,92,35.2z"/>
	<circle class="st0" cx="69.7" cy="50.7" r="1.4"/>
	<path class="st0" d="M37,64.8c0.9-1.1,1.9-2,3.1-2.8h-6.9c-0.8,0-1.4-0.6-1.4-1.4V32.2c0-0.3,0.2-0.5,0.5-0.5h11.3l2-2.8H38V17.6
		c0-5.4,4.6-9.8,10.2-9.8h3.5c5.6,0,10.2,4.4,10.2,9.8v11.3h-8.4l2.5,2.8h11.8c0.3,0,0.5,0.2,0.5,0.5v12.9c0,0.8,0.6,1.4,1.4,1.4
		s1.4-0.6,1.4-1.4V32.2c0-1.8-1.5-3.3-3.3-3.3h-3V17.6c0-7-5.8-12.6-13-12.6h-3.5c-7.2,0-13,5.6-13,12.6v11.3h-3
		c-1.8,0-3.3,1.5-3.3,3.3v28.3c0,2.3,1.9,4.2,4.2,4.2H37V64.8z"/>
	<path class="st0" d="M71.1,56.4c0-0.8-0.6-1.4-1.4-1.4s-1.4,0.6-1.4,1.4v4.1c0,0.8-0.6,1.4-1.4,1.4h-7.3c1.1,0.8,2.2,1.8,3.1,2.8
		h4.1c2.3,0,4.2-1.9,4.2-4.2v-4.1H71.1z"/>
	<path class="st1" d="M56,63.1v-4.9l-3.9-3.7l3.1-2.7c0.3-0.3,0.4-0.7,0.1-1.1c-0.1-0.1-0.1-0.1-0.2-0.2l-3.3-2.3l3.3-2.7
		c0.4-0.3,0.5-0.9,0.2-1.3l-0.1-0.1l-2.9-2.9l3-2.8c0.2-0.2,0.4-0.5,0.4-0.8v-1.5c0-0.3-0.1-0.6-0.3-0.9L50,29.1
		c-0.2-0.2-0.4-0.3-0.7-0.3s-0.5,0.1-0.6,0.3l-3.9,5.6c-0.4,0.5-0.6,1.1-0.6,1.8l0.1,26.2c-5.1,2.1-8.4,7.1-8.4,12.5
		C36,83,42.3,89.3,50,89.4h0.2c7.6,0.1,13.8-6,13.9-13.5v-0.1C64,70.3,60.9,65.4,56,63.1z M58.1,83.3c-2.1,2.1-5,3.3-7.9,3.2H50
		c-6.2-0.1-11.2-5-11.3-11.3c0-4.3,2.6-8.3,6.6-10c1-0.4,1.7-1.5,1.7-2.6l0-25.9c0-0.1,0-0.1,0.1-0.1l0.1-0.1l2.5-3.5l3.4,3.8V37
		l-2.5,2.3c-1.1,1.1-1.2,2.8-0.2,4l0.1,0.1l1.4,1.4L50.1,46c-1.2,1-1.4,2.7-0.4,4c0.2,0.2,0.3,0.4,0.6,0.5l1.1,0.8l-1.1,1
		c-1.2,1-1.3,2.8-0.3,4c0.1,0.1,0.1,0.2,0.2,0.2l3.1,2.9v3.7c0,1.1,0.6,2.1,1.6,2.5c3.9,1.9,6.4,5.8,6.5,10.1
		C61.3,78.6,60.1,81.3,58.1,83.3L58.1,83.3z"/>
	<path class="st1" d="M50,70.4c-3.1,0-5.6,2.5-5.6,5.6s2.5,5.6,5.6,5.6l0,0c3.1,0,5.6-2.5,5.6-5.6S53.1,70.4,50,70.4z M50,78.8
		L50,78.8c-1.6,0-2.8-1.3-2.8-2.8s1.3-2.8,2.8-2.8c1.6,0,2.8,1.3,2.8,2.8S51.6,78.8,50,78.8z"/>
	<path class="st0" d="M11.3,30.4c0.8,0,1.4-0.6,1.4-1.4v-3.5c0-4.3,3.7-7.8,8.4-7.8h3c4.6,0,8.4,3.5,8.4,7.8v-7
		c-2.2-2.3-5.2-3.6-8.4-3.6h-3c-6.2,0-11.2,4.8-11.2,10.6V29C9.9,29.7,10.6,30.4,11.3,30.4z"/>
	<path class="st0" d="M26.2,62H8.7c-0.5,0-0.9-0.4-0.9-0.8l0,0v-23C7.8,38.1,7.9,38,8,38h18.1v-2.8H8c-1.6,0-3,1.3-3,3v22.9
		c0,2,1.7,3.7,3.7,3.7l0,0h18.8C26.9,63.9,26.4,63,26.2,62z"/>
</g>
<text transform="matrix(1 0 0 1 -914 -446)" style="font-family:'AdobeSongStd-Light-GBpc-EUC-H'; font-size:12px;">滚滚长江东逝水</text>
</svg>
